<svg width="168" height="37" viewBox="0 0 168 37" fill="none" xmlns="http://www.w3.org/2000/svg">
<path fill-rule="evenodd" clip-rule="evenodd" d="M12.4323 0H25.0685L12.9175 20.3827H36.6852L29.7557 32H5.29859L11.5531 21.1965H0L12.4323 0Z" fill="#F3F3F3"/>
<path d="M46.8751 31V10H50.1151V28.06H60.2251V31H46.8751ZM67.8734 31.42C66.8134 31.42 65.8634 31.24 65.0234 30.88C64.2034 30.52 63.5434 29.99 63.0434 29.29C62.5634 28.59 62.3234 27.74 62.3234 26.74C62.3234 25.72 62.5634 24.88 63.0434 24.22C63.5434 23.54 64.2134 23.03 65.0534 22.69C65.9134 22.35 66.8834 22.18 67.9634 22.18H72.4634V21.22C72.4634 20.36 72.2034 19.67 71.6834 19.15C71.1634 18.63 70.3634 18.37 69.2834 18.37C68.2234 18.37 67.4134 18.62 66.8534 19.12C66.2934 19.62 65.9234 20.27 65.7434 21.07L62.8634 20.14C63.1034 19.34 63.4834 18.62 64.0034 17.98C64.5434 17.32 65.2534 16.79 66.1334 16.39C67.0134 15.99 68.0734 15.79 69.3134 15.79C71.2334 15.79 72.7434 16.28 73.8434 17.26C74.9434 18.24 75.4934 19.63 75.4934 21.43V27.52C75.4934 28.12 75.7734 28.42 76.3334 28.42H77.5934V31H75.2834C74.5834 31 74.0134 30.82 73.5734 30.46C73.1334 30.1 72.9134 29.61 72.9134 28.99V28.9H72.4634C72.3034 29.2 72.0634 29.55 71.7434 29.95C71.4234 30.35 70.9534 30.7 70.3334 31C69.7134 31.28 68.8934 31.42 67.8734 31.42ZM68.3234 28.87C69.5634 28.87 70.5634 28.52 71.3234 27.82C72.0834 27.1 72.4634 26.12 72.4634 24.88V24.58H68.1434C67.3234 24.58 66.6634 24.76 66.1634 25.12C65.6634 25.46 65.4134 25.97 65.4134 26.65C65.4134 27.33 65.6734 27.87 66.1934 28.27C66.7134 28.67 67.4234 28.87 68.3234 28.87ZM81.927 37V34.3H90.177C90.737 34.3 91.017 34 91.017 33.4V28.84H90.537C90.357 29.24 90.077 29.63 89.697 30.01C89.337 30.37 88.847 30.67 88.227 30.91C87.607 31.15 86.827 31.27 85.887 31.27C84.767 31.27 83.767 31.02 82.887 30.52C82.007 30.02 81.317 29.31 80.817 28.39C80.317 27.47 80.067 26.38 80.067 25.12V16.21H83.157V24.88C83.157 26.16 83.477 27.11 84.117 27.73C84.757 28.33 85.647 28.63 86.787 28.63C88.047 28.63 89.057 28.21 89.817 27.37C90.597 26.53 90.987 25.31 90.987 23.71V16.21H94.077V34.03C94.077 34.93 93.807 35.65 93.267 36.19C92.747 36.73 92.027 37 91.107 37H81.927ZM98.6447 31V16.21H101.675V18.43H102.155C102.435 17.83 102.935 17.27 103.655 16.75C104.375 16.23 105.445 15.97 106.865 15.97C107.985 15.97 108.975 16.22 109.835 16.72C110.715 17.22 111.405 17.93 111.905 18.85C112.405 19.75 112.655 20.84 112.655 22.12V31H109.565V22.36C109.565 21.08 109.245 20.14 108.605 19.54C107.965 18.92 107.085 18.61 105.965 18.61C104.685 18.61 103.655 19.03 102.875 19.87C102.115 20.71 101.735 21.93 101.735 23.53V31H98.6447ZM124.032 31.42C122.552 31.42 121.232 31.12 120.072 30.52C118.932 29.9 118.032 29.02 117.372 27.88C116.712 26.74 116.382 25.39 116.382 23.83V23.38C116.382 21.82 116.712 20.48 117.372 19.36C118.032 18.22 118.932 17.34 120.072 16.72C121.232 16.1 122.552 15.79 124.032 15.79C125.512 15.79 126.832 16.1 127.992 16.72C129.152 17.34 130.062 18.22 130.722 19.36C131.382 20.48 131.712 21.82 131.712 23.38V23.83C131.712 25.39 131.382 26.74 130.722 27.88C130.062 29.02 129.152 29.9 127.992 30.52C126.832 31.12 125.512 31.42 124.032 31.42ZM124.032 28.66C125.392 28.66 126.492 28.23 127.332 27.37C128.192 26.49 128.622 25.28 128.622 23.74V23.47C128.622 21.93 128.202 20.73 127.362 19.87C126.522 18.99 125.412 18.55 124.032 18.55C122.692 18.55 121.592 18.99 120.732 19.87C119.892 20.73 119.472 21.93 119.472 23.47V23.74C119.472 25.28 119.892 26.49 120.732 27.37C121.592 28.23 122.692 28.66 124.032 28.66ZM138.451 31L133.471 16.21H136.741L140.671 28.72H141.151L145.081 16.21H148.351L143.371 31H138.451ZM155.53 31.42C154.47 31.42 153.52 31.24 152.68 30.88C151.86 30.52 151.2 29.99 150.7 29.29C150.22 28.59 149.98 27.74 149.98 26.74C149.98 25.72 150.22 24.88 150.7 24.22C151.2 23.54 151.87 23.03 152.71 22.69C153.57 22.35 154.54 22.18 155.62 22.18H160.12V21.22C160.12 20.36 159.86 19.67 159.34 19.15C158.82 18.63 158.02 18.37 156.94 18.37C155.88 18.37 155.07 18.62 154.51 19.12C153.95 19.62 153.58 20.27 153.4 21.07L150.52 20.14C150.76 19.34 151.14 18.62 151.66 17.98C152.2 17.32 152.91 16.79 153.79 16.39C154.67 15.99 155.73 15.79 156.97 15.79C158.89 15.79 160.4 16.28 161.5 17.26C162.6 18.24 163.15 19.63 163.15 21.43V27.52C163.15 28.12 163.43 28.42 163.99 28.42H165.25V31H162.94C162.24 31 161.67 30.82 161.23 30.46C160.79 30.1 160.57 29.61 160.57 28.99V28.9H160.12C159.96 29.2 159.72 29.55 159.4 29.95C159.08 30.35 158.61 30.7 157.99 31C157.37 31.28 156.55 31.42 155.53 31.42ZM155.98 28.87C157.22 28.87 158.22 28.52 158.98 27.82C159.74 27.1 160.12 26.12 160.12 24.88V24.58H155.8C154.98 24.58 154.32 24.76 153.82 25.12C153.32 25.46 153.07 25.97 153.07 26.65C153.07 27.33 153.33 27.87 153.85 28.27C154.37 28.67 155.08 28.87 155.98 28.87Z" fill="white"/>
</svg>
