<svg width="235" height="66" viewBox="0 0 235 66" fill="none" xmlns="http://www.w3.org/2000/svg">
<g clip-path="url(#clip0_1166_381)">
<path fill-rule="evenodd" clip-rule="evenodd" d="M15.8944 10.8076H32.0493L16.5157 36.864H46.9015L38.0423 51.7161H6.77466L14.7698 37.9062H0L15.8944 10.8076Z" fill="#A7D02A"/>
<path d="M208.525 31.228C208.525 28.7474 209.012 26.5474 209.987 24.6279C210.991 22.7084 212.334 21.2319 214.018 20.1983C215.73 19.1647 217.635 18.6479 219.732 18.6479C221.563 18.6479 223.157 19.0171 224.516 19.7553C225.904 20.4936 227.011 21.4238 227.838 22.546V19.0466H234.084V43.5865H227.838V39.9985C227.041 41.1502 225.933 42.11 224.516 42.8778C223.128 43.616 221.518 43.9852 219.687 43.9852C217.62 43.9852 215.73 43.4536 214.018 42.3905C212.334 41.3274 210.991 39.8361 209.987 37.9166C209.012 35.9676 208.525 33.7381 208.525 31.228ZM227.838 31.3166C227.838 29.8105 227.543 28.5259 226.952 27.4628C226.361 26.3702 225.564 25.5433 224.56 24.9823C223.556 24.3916 222.478 24.0963 221.326 24.0963C220.175 24.0963 219.112 24.3769 218.137 24.938C217.163 25.499 216.365 26.3259 215.745 27.4185C215.155 28.4816 214.859 29.7514 214.859 31.228C214.859 32.7045 215.155 34.0038 215.745 35.126C216.365 36.2186 217.163 37.0603 218.137 37.6509C219.141 38.2415 220.204 38.5368 221.326 38.5368C222.478 38.5368 223.556 38.2562 224.56 37.6952C225.564 37.1045 226.361 36.2777 226.952 35.2146C227.543 34.122 227.838 32.8226 227.838 31.3166Z" fill="black"/>
<path d="M193.836 37.8724L200.037 19.0466H206.637L197.556 43.5865H190.026L180.99 19.0466H187.634L193.836 37.8724Z" fill="black"/>
<path d="M166.253 43.9852C163.89 43.9852 161.764 43.4684 159.874 42.4348C157.984 41.3717 156.493 39.8804 155.4 37.9609C154.337 36.0415 153.806 33.8267 153.806 31.3166C153.806 28.8065 154.352 26.5917 155.445 24.6722C156.567 22.7527 158.088 21.2762 160.007 20.2426C161.927 19.1795 164.068 18.6479 166.43 18.6479C168.792 18.6479 170.933 19.1795 172.853 20.2426C174.772 21.2762 176.278 22.7527 177.371 24.6722C178.493 26.5917 179.054 28.8065 179.054 31.3166C179.054 33.8267 178.478 36.0415 177.327 37.9609C176.205 39.8804 174.669 41.3717 172.72 42.4348C170.8 43.4684 168.645 43.9852 166.253 43.9852ZM166.253 38.5811C167.375 38.5811 168.423 38.3153 169.398 37.7838C170.402 37.2227 171.199 36.3958 171.79 35.3032C172.38 34.2106 172.676 32.8817 172.676 31.3166C172.676 28.9836 172.056 27.197 170.815 25.9568C169.605 24.6869 168.113 24.052 166.341 24.052C164.57 24.052 163.078 24.6869 161.868 25.9568C160.686 27.197 160.096 28.9836 160.096 31.3166C160.096 33.6495 160.672 35.4508 161.823 36.7206C163.004 37.9609 164.481 38.5811 166.253 38.5811Z" fill="black"/>
<path d="M139.669 18.6923C142.592 18.6923 144.955 19.6225 146.756 21.4829C148.557 23.3138 149.458 25.883 149.458 29.1904V43.5865H143.257V30.032C143.257 28.083 142.769 26.5917 141.795 25.5581C140.82 24.495 139.491 23.9635 137.808 23.9635C136.095 23.9635 134.737 24.495 133.733 25.5581C132.758 26.5917 132.271 28.083 132.271 30.032V43.5865H126.07V19.0466H132.271V22.103C133.098 21.0399 134.146 20.2131 135.416 19.6225C136.716 19.0023 138.133 18.6923 139.669 18.6923Z" fill="black"/>
<path d="M122.727 19.0466L107.534 55.192H100.934L106.249 42.9664L96.4155 19.0466H103.37L109.704 36.1891L116.127 19.0466H122.727Z" fill="black"/>
<path d="M67.6353 31.228C67.6353 28.7474 68.1225 26.5474 69.097 24.6279C70.1011 22.7084 71.4447 21.2319 73.1279 20.1983C74.8407 19.1647 76.7454 18.6479 78.8421 18.6479C80.673 18.6479 82.2676 19.0171 83.626 19.7553C85.014 20.4936 86.1214 21.4238 86.9482 22.546V19.0466H93.1939V43.5865H86.9482V39.9985C86.1509 41.1502 85.0435 42.11 83.626 42.8778C82.2381 43.616 80.6287 43.9852 78.7978 43.9852C76.7307 43.9852 74.8407 43.4536 73.1279 42.3905C71.4447 41.3274 70.1011 39.8361 69.097 37.9166C68.1225 35.9676 67.6353 33.7381 67.6353 31.228ZM86.9482 31.3166C86.9482 29.8105 86.6529 28.5259 86.0623 27.4628C85.4717 26.3702 84.6744 25.5433 83.6703 24.9823C82.6663 24.3916 81.5884 24.0963 80.4367 24.0963C79.2851 24.0963 78.222 24.3769 77.2474 24.938C76.2729 25.499 75.4756 26.3259 74.8555 27.4185C74.2649 28.4816 73.9696 29.7514 73.9696 31.228C73.9696 32.7045 74.2649 34.0038 74.8555 35.126C75.4756 36.2186 76.2729 37.0603 77.2474 37.6509C78.2515 38.2415 79.3146 38.5368 80.4367 38.5368C81.5884 38.5368 82.6663 38.2562 83.6703 37.6952C84.6744 37.1045 85.4717 36.2777 86.0623 35.2146C86.6529 34.122 86.9482 32.8226 86.9482 31.3166Z" fill="black"/>
<path d="M63.1028 10.8076V43.5865H56.9014V10.8076H63.1028Z" fill="black"/>
</g>
<defs>
<clipPath id="clip0_1166_381">
<rect width="234.084" height="64.3845" fill="white" transform="translate(0 0.807617)"/>
</clipPath>
</defs>
</svg>
